<?xml version="1.0" encoding="UTF-8" standalone="no"?>
<!DOCTYPE svg PUBLIC "-//W3C//DTD SVG 1.1//EN"
 "http://www.w3.org/Graphics/SVG/1.1/DTD/svg11.dtd">
<!-- Generated by graphviz version 2.38.0 (20140413.2041)
 -->
<!-- Title: G Pages: 1 -->
<svg width="126pt" height="168pt"
 viewBox="0.00 0.00 126.00 168.00" xmlns="http://www.w3.org/2000/svg" xmlns:xlink="http://www.w3.org/1999/xlink">
<g id="graph0" class="graph" transform="scale(1 1) rotate(0) translate(4 164)">
<title>G</title>
<polygon fill="white" stroke="none" points="-4,4 -4,-164 122,-164 122,4 -4,4"/>
<g id="clust1" class="cluster"><title>cluster_Global</title>
<path fill="none" stroke="gray" d="M20,-8C20,-8 98,-8 98,-8 104,-8 110,-14 110,-20 110,-20 110,-140 110,-140 110,-146 104,-152 98,-152 98,-152 20,-152 20,-152 14,-152 8,-146 8,-140 8,-140 8,-20 8,-20 8,-14 14,-8 20,-8"/>
<text text-anchor="middle" x="59" y="-139.2" font-family="Times,serif" font-size="11.00" fill="gray">Global</text>
</g>
<g id="clust2" class="cluster"><title>cluster_\voku</title>
<path fill="none" stroke="gray" d="M28,-16C28,-16 90,-16 90,-16 96,-16 102,-22 102,-28 102,-28 102,-112 102,-112 102,-118 96,-124 90,-124 90,-124 28,-124 28,-124 22,-124 16,-118 16,-112 16,-112 16,-28 16,-28 16,-22 22,-16 28,-16"/>
<text text-anchor="middle" x="59" y="-111.2" font-family="Times,serif" font-size="11.00" fill="gray">voku</text>
</g>
<g id="clust3" class="cluster"><title>cluster_\voku\helper</title>
<path fill="none" stroke="gray" d="M36,-24C36,-24 82,-24 82,-24 88,-24 94,-30 94,-36 94,-36 94,-84 94,-84 94,-90 88,-96 82,-96 82,-96 36,-96 36,-96 30,-96 24,-90 24,-84 24,-84 24,-36 24,-36 24,-30 30,-24 36,-24"/>
<text text-anchor="middle" x="59" y="-83.2" font-family="Times,serif" font-size="11.00" fill="gray">helper</text>
</g>
<!-- \\voku\\helper\\UTF8 -->
<g id="node1" class="node"><title>\\voku\\helper\\UTF8</title>
<polygon fill="none" stroke="black" points="86,-68 32,-68 32,-32 86,-32 86,-68"/>
<text text-anchor="middle" x="59" y="-47.2" font-family="Courier,monospace" font-size="11.00">UTF8</text>
</g>
</g>
</svg>
