<?xml version="1.0" encoding="UTF-8" standalone="no"?>
<!DOCTYPE svg PUBLIC "-//W3C//DTD SVG 1.1//EN"
 "http://www.w3.org/Graphics/SVG/1.1/DTD/svg11.dtd">
<!-- Generated by graphviz version 2.38.0 (20140413.2041)
 -->
<!-- Title: G Pages: 1 -->
<svg width="172pt" height="520pt"
 viewBox="0.00 0.00 172.00 520.00" xmlns="http://www.w3.org/2000/svg" xmlns:xlink="http://www.w3.org/1999/xlink">
<g id="graph0" class="graph" transform="scale(1 1) rotate(0) translate(4 516)">
<title>G</title>
<polygon fill="white" stroke="none" points="-4,4 -4,-516 168,-516 168,4 -4,4"/>
<g id="clust1" class="cluster"><title>cluster_Global</title>
<path fill="none" stroke="gray" d="M20,-8C20,-8 144,-8 144,-8 150,-8 156,-14 156,-20 156,-20 156,-492 156,-492 156,-498 150,-504 144,-504 144,-504 20,-504 20,-504 14,-504 8,-498 8,-492 8,-492 8,-20 8,-20 8,-14 14,-8 20,-8"/>
<text text-anchor="middle" x="82" y="-491.2" font-family="Times,serif" font-size="11.00" fill="gray">Global</text>
</g>
<g id="clust2" class="cluster"><title>cluster_\voku</title>
<path fill="none" stroke="gray" d="M28,-16C28,-16 136,-16 136,-16 142,-16 148,-22 148,-28 148,-28 148,-464 148,-464 148,-470 142,-476 136,-476 136,-476 28,-476 28,-476 22,-476 16,-470 16,-464 16,-464 16,-28 16,-28 16,-22 22,-16 28,-16"/>
<text text-anchor="middle" x="82" y="-463.2" font-family="Times,serif" font-size="11.00" fill="gray">voku</text>
</g>
<g id="clust3" class="cluster"><title>cluster_\voku\helper</title>
<path fill="none" stroke="gray" d="M36,-24C36,-24 128,-24 128,-24 134,-24 140,-30 140,-36 140,-36 140,-436 140,-436 140,-442 134,-448 128,-448 128,-448 36,-448 36,-448 30,-448 24,-442 24,-436 24,-436 24,-36 24,-36 24,-30 30,-24 36,-24"/>
<text text-anchor="middle" x="82" y="-435.2" font-family="Times,serif" font-size="11.00" fill="gray">helper</text>
</g>
<g id="clust4" class="cluster"><title>cluster_\voku\helper\shim</title>
<path fill="none" stroke="gray" d="M44,-132C44,-132 120,-132 120,-132 126,-132 132,-138 132,-144 132,-144 132,-408 132,-408 132,-414 126,-420 120,-420 120,-420 44,-420 44,-420 38,-420 32,-414 32,-408 32,-408 32,-144 32,-144 32,-138 38,-132 44,-132"/>
<text text-anchor="middle" x="82" y="-407.2" font-family="Times,serif" font-size="11.00" fill="gray">shim</text>
</g>
<!-- \\voku\\helper\\shim\\Normalizer -->
<g id="node1" class="node"><title>\\voku\\helper\\shim\\Normalizer</title>
<polygon fill="none" stroke="black" points="124,-392 40,-392 40,-356 124,-356 124,-392"/>
<text text-anchor="middle" x="82" y="-371.2" font-family="Courier,monospace" font-size="11.00">Normalizer</text>
</g>
<!-- \\voku\\helper\\shim\\Intl -->
<g id="node2" class="node"><title>\\voku\\helper\\shim\\Intl</title>
<polygon fill="none" stroke="black" points="109,-338 55,-338 55,-302 109,-302 109,-338"/>
<text text-anchor="middle" x="82" y="-317.2" font-family="Courier,monospace" font-size="11.00">Intl</text>
</g>
<!-- \\voku\\helper\\shim\\Iconv -->
<g id="node3" class="node"><title>\\voku\\helper\\shim\\Iconv</title>
<polygon fill="none" stroke="black" points="109,-284 55,-284 55,-248 109,-248 109,-284"/>
<text text-anchor="middle" x="82" y="-263.2" font-family="Courier,monospace" font-size="11.00">Iconv</text>
</g>
<!-- \\voku\\helper\\shim\\Xml -->
<g id="node4" class="node"><title>\\voku\\helper\\shim\\Xml</title>
<polygon fill="none" stroke="black" points="109,-230 55,-230 55,-194 109,-194 109,-230"/>
<text text-anchor="middle" x="82" y="-209.2" font-family="Courier,monospace" font-size="11.00">Xml</text>
</g>
<!-- \\voku\\helper\\shim\\Mbstring -->
<g id="node5" class="node"><title>\\voku\\helper\\shim\\Mbstring</title>
<polygon fill="none" stroke="black" points="117.5,-176 46.5,-176 46.5,-140 117.5,-140 117.5,-176"/>
<text text-anchor="middle" x="82" y="-155.2" font-family="Courier,monospace" font-size="11.00">Mbstring</text>
</g>
<!-- \\voku\\helper\\UTF8 -->
<g id="node6" class="node"><title>\\voku\\helper\\UTF8</title>
<polygon fill="none" stroke="black" points="109,-122 55,-122 55,-86 109,-86 109,-122"/>
<text text-anchor="middle" x="82" y="-101.2" font-family="Courier,monospace" font-size="11.00">UTF8</text>
</g>
<!-- \\voku\\helper\\Bootup -->
<g id="node7" class="node"><title>\\voku\\helper\\Bootup</title>
<polygon fill="none" stroke="black" points="110.5,-68 53.5,-68 53.5,-32 110.5,-32 110.5,-68"/>
<text text-anchor="middle" x="82" y="-47.2" font-family="Courier,monospace" font-size="11.00">Bootup</text>
</g>
</g>
</svg>
